<svg xmlns="http://www.w3.org/2000/svg" viewBox="0 0 24 24" id="neoj">
  <path fill="#60AE44" d="M6.064 5.679a2.852 2.852 0 0 0 2.85-2.839c0-1.532-1.27-2.817-2.806-2.84-1.543-.022-2.864 1.268-2.889 2.82-.025 1.53 1.291 2.852 2.845 2.859z"></path>
  <path fill="#1C88BC" d="M3.04 5.018C.524 8.691.67 13.697 3.413 17.203c.493.631 1.03 1.219 1.696 1.71.752-3.208 3.405-4.251 5.536-3.888 2.601.442 4.014 2.602 3.77 5.787 3.527-.43 7.951-5.65 7.515-8.864-2.705 2.356-5.015 2.779-7.443 1.36-2.147-1.254-3.206-3.721-2.662-6.197.589-2.68 2.514-4.085 6.216-4.467C15.231.642 12.26.025 8.998.821c-.422.102-.241.261-.126.473.788 1.447.384 3.207-.945 4.151a3.158 3.158 0 0 1-4.23-.49c-.324-.367-.429-.269-.657.063zm14.17 9.684a.829.829 0 0 1 .866.841.834.834 0 0 1-.825.832.837.837 0 1 1-.041-1.673zm-1.481 1.777c.48.004.853.393.836.875-.015.462-.371.792-.852.791-.496-.004-.859-.375-.841-.858a.857.857 0 0 1 .857-.808zM12.814 2.095a.862.862 0 0 1 .884.835.828.828 0 0 1-.809.843c-.508.017-.865-.32-.869-.818-.005-.476.329-.837.794-.86zm-2.115-.747a.826.826 0 0 1 .815.837.851.851 0 0 1-.826.838.856.856 0 0 1-.869-.849c.003-.481.387-.84.88-.826zM7.685 14.312c-.002.452-.372.813-.839.821-.502.007-.86-.345-.854-.838a.84.84 0 0 1 .821-.836c.471-.004.876.391.872.853zm-1.172-2.119a.81.81 0 0 1-.849.797.836.836 0 0 1-.816-.891.833.833 0 0 1 .861-.797c.48.01.824.391.804.891zm-1.319-1.61a.853.853 0 0 1-.863-.855.851.851 0 0 1 .832-.835.819.819 0 0 1 .847.803c.02.489-.338.878-.816.887zm-.139-3.954a.84.84 0 0 1 .834.876.84.84 0 0 1-.861.798.832.832 0 0 1-.83-.827.824.824 0 0 1 .857-.847z"></path>
  <path fill="#60AE44" d="M12.035 8.319c-.015 2.983 2.352 5.393 5.307 5.407 2.988.012 5.394-2.35 5.407-5.309.013-2.929-2.372-5.341-5.307-5.363-2.941-.022-5.393 2.365-5.407 5.265zM9.806 24c2.384-.008 4.345-1.975 4.342-4.358 0-2.41-1.963-4.336-4.409-4.326-2.347.01-4.332 2.01-4.308 4.34.025 2.379 2.011 4.352 4.375 4.344z"></path>
</svg>
